<!-- <svg class="w-6 h-6 text-gray-800 dark:text-white" aria-hidden="true" xmlns="http://www.w3.org/2000/svg" width="24" height="24" fill="currentColor" viewBox="0 0 24 24">
  <path fill-rule="evenodd" d="M4 4a1 1 0 0 1 1-1h14a1 1 0 1 1 0 2v14a1 1 0 1 1 0 2H5a1 1 0 1 1 0-2V5a1 1 0 0 1-1-1Zm5 2a1 1 0 0 0-1 1v1a1 1 0 0 0 1 1h1a1 1 0 0 0 1-1V7a1 1 0 0 0-1-1H9Zm5 0a1 1 0 0 0-1 1v1a1 1 0 0 0 1 1h1a1 1 0 0 0 1-1V7a1 1 0 0 0-1-1h-1Zm-5 4a1 1 0 0 0-1 1v1a1 1 0 0 0 1 1h1a1 1 0 0 0 1-1v-1a1 1 0 0 0-1-1H9Zm5 0a1 1 0 0 0-1 1v1a1 1 0 0 0 1 1h1a1 1 0 0 0 1-1v-1a1 1 0 0 0-1-1h-1Zm-3 4a2 2 0 0 0-2 2v3h2v-3h2v3h2v-3a2 2 0 0 0-2-2h-2Z" clip-rule="evenodd"/>
</svg> -->

<svg class="w-6 h-6 text-gray-800 dark:text-white" aria-hidden="true" xmlns="http://www.w3.org/2000/svg" width="24" height="24" fill="none" viewBox="0 0 24 24">
  <path stroke="currentColor" stroke-linecap="round" stroke-linejoin="round" stroke-width="2" d="M6 4h12M6 4v16M6 4H5m13 0v16m0-16h1m-1 16H6m12 0h1M6 20H5M9 7h1v1H9V7Zm5 0h1v1h-1V7Zm-5 4h1v1H9v-1Zm5 0h1v1h-1v-1Zm-3 4h2a1 1 0 0 1 1 1v4h-4v-4a1 1 0 0 1 1-1Z"/>
</svg>

